<svg width="1070" height="50" viewBox="0 0 1070 50" fill="none" xmlns="http://www.w3.org/2000/svg">
<path d="M0 48.3749H1040" stroke="white" stroke-width="2" stroke-miterlimit="4.81765"/>
<path d="M1033.25 0.669989C1033.09 0.904462 1034.25 2.68842 1035.88 4.55078L1038.88 8.01428L1042.91 6.90095L1046.95 5.78763L1043.42 3.41399C1040.47 1.5171 1039.27 1.00173 1036.7 0.643556C1034.96 0.436237 1033.41 0.435517 1033.25 0.669989Z" fill="white"/>
<path d="M1048.3 7.58345C1027.93 13.0895 1028.65 12.9394 1026.9 12.1936C1026.07 11.8481 1023.66 10.3763 1021.53 8.92229C1019.41 7.46831 1017.23 6.10871 1016.67 5.87834C1015.52 5.46329 1013.7 5.78846 1013.67 6.37259C1013.65 6.61598 1015.46 9.41807 1017.67 12.5877C1023.9 21.5829 1025.33 22.1618 1035.32 19.4699C1038.63 18.604 1041.51 17.9548 1041.69 18.0641C1041.87 18.1733 1041 20.7087 1039.68 23.704C1036.64 30.6962 1036.63 30.9396 1038.98 30.355C1041.38 29.7248 1044.89 26.428 1050.03 19.8617L1054.34 14.4161L1061.59 12.5283C1068.03 10.8334 1068.9 10.4975 1069.1 9.48417C1069.57 7.31448 1066.07 4.35671 1062.83 4.15164C1061.98 4.14683 1055.46 5.68974 1048.3 7.58345Z" fill="white"/>
</svg>
