<svg width="150" height="50" viewBox="0 0 150 50" fill="none" xmlns="http://www.w3.org/2000/svg">
<path d="M87.6973 0.123805C87.6351 0.231158 88.1953 0.982629 88.9629 1.75557L90.3737 3.1941L92.1164 2.59292L93.8592 1.99175L92.2409 1.04704C90.8924 0.29557 90.353 0.102334 89.2119 0.0164519C88.4442 -0.0264893 87.7596 0.0164519 87.6973 0.123805Z" fill="white"/>
<path d="M94.5021 2.74323C85.7055 5.72764 86.0167 5.64176 85.2283 5.36264C84.8548 5.23382 83.7553 4.65411 82.7801 4.07441C81.805 3.4947 80.8092 2.95793 80.5602 2.87205C80.0416 2.72176 79.2532 2.91499 79.2532 3.17264C79.2532 3.27999 80.1245 4.46088 81.1826 5.79205C84.1702 9.57088 84.8133 9.78558 89.1287 8.32558C90.5602 7.85323 91.805 7.48823 91.888 7.53117C91.971 7.57411 91.6598 8.71205 91.1619 10.0647C90.0208 13.2209 90.0208 13.3282 91.0374 13.0062C92.0748 12.6626 93.527 11.1168 95.6017 8.08941L97.3445 5.57735L100.477 4.54676C103.257 3.62352 103.631 3.45176 103.693 3.00088C103.838 2.0347 102.22 0.832346 100.788 0.832346C100.415 0.853816 97.5934 1.71264 94.5021 2.74323Z" fill="white"/>
<path d="M74.5645 12.0615C71.8674 13.1994 69.7512 14.3159 68.5479 15.2606C66.3902 16.9138 64.1288 19.4259 62.4898 21.9165C60.7886 24.4715 57.8218 32.0076 56.3072 37.5041C55.8923 39.0715 55.4566 40.2738 55.3736 40.1879C55.2906 40.1021 54.274 37.7832 53.133 35.0779C51.8259 31.9647 50.9545 30.1612 50.7886 30.2041C50.5396 30.2471 46.7014 31.9647 46.494 32.115C46.4525 32.1365 46.7222 32.8665 47.0956 33.7253C50.6226 41.8412 53.1537 48.1321 53.4234 49.3988L53.5272 50H56.0168C58.1745 50 58.4857 49.9571 58.5894 49.6135C58.6516 49.4203 59.3363 46.5003 60.1454 43.1294C61.6392 36.7526 62.4276 34.2191 64.0251 30.3115C67.3031 22.3459 70.0624 19.4903 77.4898 16.3985C79.6268 15.5182 80.0002 15.2176 80.3114 14.1441C80.7471 12.6412 79.4815 10.9235 77.9048 10.9235C77.5728 10.9235 76.0583 11.4388 74.5645 12.0615Z" fill="white"/>
<path d="M11.2656 17.3003C8.83818 24.0206 6.20332 31.2777 3.19502 39.5438C1.43154 44.3747 0 48.4112 0 48.5186C0 48.6259 1.22407 48.7118 2.78008 48.7118H5.56017L6.0166 47.3591C6.45229 46.1139 8.09129 41.5621 8.4025 40.7033C8.54772 40.3597 9.0249 40.3383 15.3942 40.3812L22.2407 40.4456L22.8216 41.9486C23.1328 42.7644 23.8174 44.6324 24.3569 46.0709L25.3527 48.7118H28.2573C30.9544 48.7118 31.1618 48.6903 31.0166 48.3253C30.9336 48.1321 30.5187 46.9512 30.083 45.7059C29.6473 44.4606 27.7801 39.2862 25.9336 34.2191C24.0664 29.1306 22.3444 24.2997 22.0747 23.4838C21.7842 22.6465 20.9544 20.2633 20.1867 18.1591L18.7759 14.3588H15.5602H12.3237L11.2656 17.3003ZM16.556 23.7415C19.6473 32.4371 20.5394 34.9921 20.5394 35.1853C20.5394 35.3141 18.693 35.4 15.3527 35.4C12.5104 35.4 10.166 35.3571 10.166 35.3141C10.166 35.2712 10.8506 33.3174 11.7013 30.9771C12.5311 28.6153 13.6722 25.3733 14.2116 23.7415C14.751 22.1312 15.2697 20.8 15.3527 20.8C15.4357 20.8 15.9751 22.1312 16.556 23.7415Z" fill="white"/>
<path d="M34.5849 16.6562C34.5019 16.7206 34.4397 18.3309 34.4397 20.1988V23.5912H32.365H30.2903V25.953V28.3147H32.365H34.4397V35.4644C34.4397 39.7156 34.5227 43.1294 34.6679 43.8809C35.0828 46.1783 35.8297 47.2303 37.6554 48.1106C38.589 48.5615 39.0662 48.6044 42.3857 48.6688L46.0579 48.7547V46.4788V44.203H43.7965C42.5724 44.203 41.2446 44.0956 40.8712 43.9668C39.6886 43.5374 39.6264 43.108 39.6264 35.2927V28.3147H42.531H45.4355V25.953V23.5912H42.531H39.6264V20.0485V16.5059H37.1783C35.8297 16.5059 34.6471 16.5703 34.5849 16.6562Z" fill="white"/>
<path d="M112.241 20.0486V23.5912H110.062H107.884V25.953V28.3147H110.062H112.22L112.282 36.5165L112.345 44.7397L112.926 45.8562C114.046 48.0891 115.664 48.7118 120.374 48.7118H123.652V46.4574V44.203H121.432C118.735 44.203 117.884 43.8809 117.49 42.7C117.324 42.1847 117.241 39.823 117.241 35.1424L117.22 28.3362L120.187 28.2718L123.133 28.2074V25.953V23.6986L120.187 23.6341L117.22 23.5697V20.0486V16.5059H114.731H112.241V20.0486Z" fill="white"/>
<path d="M92.9464 23.7844C91.3281 24.3212 90.519 24.7936 89.3987 25.8886C88.8593 26.4039 88.3821 26.7474 88.3198 26.6615C88.2784 26.5756 88.1539 25.9959 88.0916 25.4162C87.8219 23.4839 87.9879 23.5912 85.5605 23.5912H83.4028V36.1515V48.7118H85.8925H88.3821V42.0989C88.3821 35.078 88.5273 33.3603 89.295 31.6427C90.4153 29.0662 92.1165 27.9927 95.0211 28.0141C96.4319 28.0141 96.9506 28.1 97.6145 28.4865C99.2535 29.4097 99.8551 30.1827 100.332 32.0077C100.561 32.888 100.623 34.9062 100.623 40.918V48.7118H103.341H106.058L105.955 40.3812C105.851 31.2347 105.768 30.4403 104.523 28.0571C103.424 25.9315 101.162 24.1924 98.7348 23.6127C97.2825 23.2477 94.2327 23.355 92.9464 23.7844Z" fill="white"/>
<path d="M134.066 23.72C130.332 24.7506 127.469 27.6277 126.203 31.6212C125.726 33.1456 125.664 33.7038 125.664 36.2588C125.664 38.8138 125.726 39.3721 126.203 40.8965C127.863 46.0924 131.743 48.9909 137.033 48.9694C140.041 48.9694 142.158 48.0462 144.108 45.9206C144.544 45.4483 144.938 45.1047 144.979 45.1477C145.021 45.2121 145.166 46.0065 145.311 46.9297L145.56 48.6044L147.78 48.6688L150 48.7333V36.1515V23.5912H147.842H145.664L145.436 24.815C145.311 25.5021 145.166 26.3394 145.104 26.6615L144.979 27.2627L144.274 26.4253C143.382 25.3303 141.929 24.3856 140.311 23.8274C138.755 23.2906 135.768 23.2262 134.066 23.72ZM140.788 28.508C145.539 30.655 146.514 38.8353 142.49 42.8503C140.332 44.9974 136.245 45.1906 133.776 43.2583C131.909 41.7768 130.934 39.415 130.913 36.3233C130.892 32.0077 132.531 29.2809 135.788 28.1644C136.992 27.7565 139.502 27.9283 140.788 28.508Z" fill="white"/>
<path d="M73.2368 36.1515V48.7118H75.7264H78.2161V36.1515V23.5912H75.7264H73.2368V36.1515Z" fill="white"/>
</svg>
